<?xml version="1.0" encoding="UTF-8" standalone="no"?>
<svg
   xmlns:dc="http://purl.org/dc/elements/1.1/"
   xmlns:cc="http://creativecommons.org/ns#"
   xmlns:rdf="http://www.w3.org/1999/02/22-rdf-syntax-ns#"
   xmlns:svg="http://www.w3.org/2000/svg"
   xmlns="http://www.w3.org/2000/svg"
   xmlns:sodipodi="http://sodipodi.sourceforge.net/DTD/sodipodi-0.dtd"
   xmlns:inkscape="http://www.inkscape.org/namespaces/inkscape"
   inkscape:version="1.0 (4035a4fb49, 2020-05-01)"
   sodipodi:docname="RServer.svg"
   xml:space="preserve"
   viewBox="0 0 153.60001 485.66925"
   height="128.5mm"
   width="40.639999mm"
   y="0px"
   x="0px"
   id="Layer_1"
   version="1.0"><metadata
   id="metadata572"><rdf:RDF><cc:Work
       rdf:about=""><dc:format>image/svg+xml</dc:format><dc:type
         rdf:resource="http://purl.org/dc/dcmitype/StillImage" /><dc:title /></cc:Work></rdf:RDF></metadata><defs
   id="defs570" /><sodipodi:namedview
   width="25.4mm"
   units="mm"
   inkscape:current-layer="Layer_1"
   inkscape:window-maximized="0"
   inkscape:window-y="12"
   inkscape:window-x="206"
   inkscape:cy="215.95719"
   inkscape:cx="3.4505355"
   inkscape:zoom="1.9567871"
   inkscape:document-units="mm"
   showgrid="false"
   id="namedview568"
   inkscape:window-height="1304"
   inkscape:window-width="2181"
   inkscape:pageshadow="2"
   inkscape:pageopacity="0"
   guidetolerance="10"
   gridtolerance="10"
   objecttolerance="10"
   borderopacity="1"
   bordercolor="#666666"
   pagecolor="#ffffff"
   inkscape:document-rotation="0" />
<g
   id="Layer_3">
</g>
<g
   style="fill:#000000"
   transform="matrix(2.1333334,0,0,1.3333333,0.51104182,0)"
   id="Layer_2_1_">
	<path
   style="fill:#000000"
   id="path434"
   d="M 72,364.252 H 0 V 0 h 72 z" />
</g>
<path
   id="path437"
   d="M 34.139044,460.60374 H 16.214543 c -6.045072,0 -10.9462605,-4.90119 -10.9462605,-10.94626 v -33.07413 c 0,-6.04507 4.9011885,-10.94626 10.9462605,-10.94626 h 17.924501 c 6.045072,0 10.94626,4.90119 10.94626,10.94626 v 33.07413 c 0,6.04507 -4.901188,10.94626 -10.94626,10.94626 z"
   style="fill:#997d00;stroke-width:1.36828" />
<path
   id="path439"
   d="M 84.364624,460.60374 H 66.440122 c -6.045072,0 -10.94626,-4.90119 -10.94626,-10.94626 v -33.07413 c 0,-6.04507 4.901188,-10.94626 10.94626,-10.94626 h 17.924502 c 6.045072,0 10.94626,4.90119 10.94626,10.94626 v 33.07413 c 0,6.04507 -4.89982,10.94626 -10.94626,10.94626 z"
   style="fill:#997d00;stroke-width:1.36828" />
<path
   id="path441"
   d="M 34.139044,372.08817 H 16.214543 c -6.045072,0 -10.9462605,-4.90118 -10.9462605,-10.94626 v -33.07412 c 0,-6.04507 4.9011885,-10.94626 10.9462605,-10.94626 h 17.924501 c 6.045072,0 10.94626,4.90119 10.94626,10.94626 v 33.07412 c 0,6.04508 -4.901188,10.94626 -10.94626,10.94626 z"
   style="fill:none;stroke:#997d00;stroke-width:2.73657;stroke-miterlimit:10" />
<path
   id="path443"
   d="M 84.064079,372.08817 H 66.139577 c -6.045072,0 -10.94626,-4.90118 -10.94626,-10.94626 v -33.07412 c 0,-6.04507 4.901188,-10.94626 10.94626,-10.94626 h 17.924502 c 6.045072,0 10.94626,4.90119 10.94626,10.94626 v 33.07412 c 0,6.04508 -4.89982,10.94626 -10.94626,10.94626 z"
   style="fill:none;stroke:#997d00;stroke-width:2.73657;stroke-miterlimit:10" />

















<path
   style="fill:#997d00;stroke-width:1.36828"
   d="m 134.5902,460.84679 h -17.9245 c -6.04507,0 -10.94626,-4.90119 -10.94626,-10.94626 V 416.8264 c 0,-6.04507 4.90119,-10.94626 10.94626,-10.94626 h 17.9245 c 6.04507,0 10.94626,4.90119 10.94626,10.94626 v 33.07413 c 0,6.04507 -4.89982,10.94626 -10.94626,10.94626 z"
   id="path439-8" /><g
   style="font-style:normal;font-variant:normal;font-weight:normal;font-stretch:normal;font-size:21.3333px;line-height:1.25;font-family:'DejaVu Sans Mono';-inkscape-font-specification:'DejaVu Sans Mono';fill:#aa8800"
   id="text641"
   aria-label="./client"
   transform="translate(-3.5772927,-1.444791)"><g
     aria-label="./server"
     id="text88"
     style="font-size:19.7277px;line-height:1.25;font-family:'Lucida Console';-inkscape-font-specification:'Lucida Console';stroke-width:0.493193"><path
       d="m 33.690162,35.985367 v -2.851269 h 2.851269 v 2.851269 z"
       style="stroke-width:0.493193"
       id="path94" /><path
       d="m 52.252308,20.775388 -8.862052,18.061248 h -1.58939 l 8.862052,-18.061248 z"
       style="stroke-width:0.493193"
       id="path96" /><path
       d="m 54.785699,35.56153 v -1.714615 q 2.20588,0.953634 3.814535,0.953634 1.15592,0 1.907268,-0.462368 0.760981,-0.472001 0.760981,-1.184818 0,-0.915103 -1.801309,-1.493063 l -2.032492,-0.664654 q -2.379269,-0.770613 -2.379269,-2.716412 0,-1.425634 1.069226,-2.20588 1.078859,-0.780246 3.043923,-0.780246 1.473797,0 3.419596,0.452735 v 1.541227 q -1.87837,-0.568328 -3.429229,-0.568328 -1.040328,0 -1.666451,0.375674 -0.616491,0.375674 -0.616491,1.01143 0,0.780246 1.416002,1.271512 l 2.398534,0.838042 q 1.310042,0.462368 1.87837,1.107757 0.57796,0.635756 0.57796,1.656818 0,1.483431 -1.223349,2.369636 -1.223349,0.876572 -3.284739,0.876572 -1.801308,0 -3.853066,-0.664653 z"
       style="stroke-width:0.493193"
       id="path98" /><path
       d="m 75.467031,35.571162 q -1.974697,0.655021 -3.621883,0.655021 -2.697146,0 -4.151679,-1.387103 -1.444899,-1.387104 -1.444899,-3.968659 0,-2.437064 1.387103,-4.007189 1.396737,-1.570124 3.544821,-1.570124 2.16735,0 3.188413,1.30041 1.030695,1.30041 1.030695,4.045719 v 0.606858 h -7.128173 q 0.211919,3.554454 3.833801,3.554454 1.531594,0 3.361801,-0.732083 z m -7.137806,-5.750701 h 5.047517 v -0.269715 q 0,-2.832004 -2.360003,-2.832004 -1.136654,0 -1.849472,0.818777 -0.703184,0.818777 -0.838042,2.282942 z"
       style="stroke-width:0.493193"
       id="path100" /><path
       d="M 79.7632,35.985367 V 25.524292 h 1.897635 v 1.965064 q 1.4449,-2.196248 3.881964,-2.196248 0.857308,0 1.945799,0.240817 v 2.966861 h -1.425635 v -1.454533 q -0.423837,-0.09633 -0.770613,-0.09633 -1.088491,0 -1.9169,0.510532 -0.818777,0.500898 -1.714615,1.714614 v 6.810295 z"
       style="stroke-width:0.493193"
       id="path102" /><path
       d="M 93.634239,35.985367 89.29954,25.524292 h 1.945798 l 3.477392,8.380419 3.583352,-8.380419 h 1.685717 l -4.450292,10.461075 z"
       style="stroke-width:0.493193"
       id="path104" /><path
       d="m 111.18495,35.571162 q -1.97469,0.655021 -3.62188,0.655021 -2.69715,0 -4.15168,-1.387103 -1.4449,-1.387104 -1.4449,-3.968659 0,-2.437064 1.38711,-4.007189 1.39673,-1.570124 3.54482,-1.570124 2.16735,0 3.18841,1.30041 1.03069,1.30041 1.03069,4.045719 v 0.606858 h -7.12817 q 0.21192,3.554454 3.8338,3.554454 1.5316,0 3.3618,-0.732083 z m -7.1378,-5.750701 h 5.04751 v -0.269715 q 0,-2.832004 -2.36,-2.832004 -1.13665,0 -1.84947,0.818777 -0.70319,0.818777 -0.83804,2.282942 z"
       style="stroke-width:0.493193"
       id="path106" /><path
       d="M 115.48112,35.985367 V 25.524292 h 1.89764 v 1.965064 q 1.4449,-2.196248 3.88196,-2.196248 0.85731,0 1.9458,0.240817 v 2.966861 h -1.42563 v -1.454533 q -0.42384,-0.09633 -0.77062,-0.09633 -1.08849,0 -1.9169,0.510532 -0.81877,0.500898 -1.71461,1.714614 v 6.810295 z"
       style="stroke-width:0.493193"
       id="path108" /></g></g><g
   transform="translate(0,4.0000002)"
   style="font-size:14.6667px;line-height:1.25;font-family:'Lucida Console';-inkscape-font-specification:'Lucida Console';fill:#aa8800"
   id="text645-9"
   aria-label="port"><path
     style="fill:#aa8800"
     id="path744"
     d="M 13.444069,105.43466 V 94.828511 h 1.41081 v 1.460941 q 1.024091,-1.632816 2.542324,-1.632816 1.324873,0 2.083989,1.024091 0.766278,1.016929 0.766278,2.778652 0,1.933601 -0.902346,3.129561 -0.902346,1.19597 -2.363287,1.19597 -1.253258,0 -2.126958,-1.0599 v 3.70965 z m 1.41081,-4.76955 q 0.981122,1.0599 1.933598,1.0599 0.930992,0 1.439457,-0.81641 0.515626,-0.82357 0.515626,-2.29883 0,-2.750006 -1.639978,-2.750006 -1.195966,0 -2.248703,1.489587 z" /><path
     style="fill:#aa8800"
     id="path746"
     d="m 25.432377,102.78491 q -1.711592,0 -2.692714,-1.08138 -0.973961,-1.08855 -0.973961,-2.986338 0,-1.890629 0.981122,-2.972012 0.981122,-1.088544 2.685553,-1.088544 1.711593,0 2.685553,1.088544 0.981122,1.081383 0.981122,2.972012 0,1.897788 -0.981122,2.986338 -0.97396,1.08138 -2.685553,1.08138 z m 0,-1.0599 q 1.01693,0 1.589848,-0.79492 0.572918,-0.79493 0.572918,-2.212898 0,-1.41081 -0.572918,-2.205734 -0.572918,-0.794924 -1.589848,-0.794924 -1.016929,0 -1.589847,0.794924 -0.572918,0.794924 -0.572918,2.205734 0,1.417968 0.572918,2.212898 0.572918,0.79492 1.589847,0.79492 z" /><path
     style="fill:#aa8800"
     id="path748"
     d="m 32.071064,102.60587 v -7.777359 h 1.410811 v 1.460941 q 1.074221,-1.632816 2.886074,-1.632816 0.637371,0 1.446618,0.179037 v 2.205734 h -1.059899 v -1.081382 q -0.315104,-0.07162 -0.572917,-0.07162 -0.809247,0 -1.425134,0.379558 -0.608725,0.372397 -1.274742,1.274742 v 5.063155 z" /><path
     style="fill:#aa8800"
     id="path750"
     d="m 46.608858,102.59871 q -1.059898,0.1862 -2.048181,0.1862 -1.725916,0 -2.348964,-0.61589 -0.623048,-0.62305 -0.623048,-2.348961 v -3.752612 h -1.94076 v -1.059899 h 1.94076 v -1.675785 h 1.417972 v 1.675785 h 3.444669 v 1.059899 h -3.444669 v 3.981783 q 0,0.66601 0.07878,0.91667 0.08594,0.25065 0.358074,0.43685 0.48698,0.32226 1.417972,0.32226 0.880861,0 1.747399,-0.20052 z" /></g><g
   transform="translate(0,8.0000004)"
   style="font-size:14.6667px;line-height:1.25;font-family:'Lucida Console';-inkscape-font-specification:'Lucida Console';fill:#aa8800"
   id="text645-0"
   aria-label="buffer size"><path
     style="fill:#aa8800"
     id="path723"
     d="m 13.444069,145.18382 v -11.3939 h 1.41081 v 4.99154 q 1.024091,-1.63281 2.542324,-1.63281 1.324872,0 2.083989,1.02409 0.766278,1.01693 0.766278,2.77865 0,1.9336 -0.902346,3.12957 -0.902346,1.19596 -2.363287,1.19596 -1.253258,0 -2.126958,-1.0599 l -0.350912,0.9668 z m 1.41081,-2.02669 q 0.981122,1.05989 1.933598,1.05989 0.930992,0 1.439457,-0.8164 0.515626,-0.82357 0.515626,-2.29884 0,-2.75 -1.639978,-2.75 -1.195966,0 -2.248703,1.48958 z" /><path
     style="fill:#aa8800"
     id="path725"
     d="m 28.590587,137.32052 v 7.77737 h -1.41081 v -1.46095 q -0.973961,1.63998 -2.656907,1.63998 -2.205734,0 -2.205734,-2.63542 v -5.32098 h 1.41081 v 4.93426 q 0,0.91667 0.279298,1.30339 0.279297,0.37956 0.952476,0.37956 1.059898,0 2.220057,-1.53256 v -5.08465 z" /><path
     style="fill:#aa8800"
     id="path727"
     d="m 33.087993,145.09789 v -6.53843 h -2.119796 v -1.0599 h 2.119796 v -0.82357 q 0,-1.63282 0.759117,-2.34896 0.759116,-0.71615 2.492193,-0.71615 1.145836,0 2.169927,0.30794 v 1.11719 q -1.045576,-0.36523 -2.062505,-0.36523 -1.081383,0 -1.518233,0.41536 -0.429688,0.40821 -0.429688,1.43946 v 0.97396 h 3.716805 v 1.0599 h -3.716805 v 6.53843 z" /><path
     style="fill:#aa8800"
     id="path729"
     d="m 41.939577,145.09789 v -6.53843 H 39.81978 v -1.0599 h 2.119797 v -0.82357 q 0,-1.63282 0.759116,-2.34896 0.759116,-0.71615 2.492193,-0.71615 1.145836,0 2.169927,0.30794 v 1.11719 q -1.045575,-0.36523 -2.062505,-0.36523 -1.081382,0 -1.518232,0.41536 -0.429689,0.40821 -0.429689,1.43946 v 0.97396 h 3.716806 v 1.0599 h -3.716806 v 6.53843 z" /><path
     style="fill:#aa8800"
     id="path731"
     d="m 55.474763,144.78994 q -1.468102,0.48698 -2.692715,0.48698 -2.005213,0 -3.086595,-1.03125 -1.074222,-1.03125 -1.074222,-2.95053 0,-1.81185 1.031253,-2.97917 1.038414,-1.16732 2.635423,-1.16732 1.611331,0 2.370448,0.9668 0.766278,0.9668 0.766278,3.00782 v 0.45117 h -5.299492 q 0.157553,2.64258 2.850267,2.64258 1.138675,0 2.499355,-0.54427 z m -5.306653,-4.2754 h 3.752613 v -0.20052 q 0,-2.10547 -1.754561,-2.10547 -0.845055,0 -1.375004,0.60872 -0.522787,0.60873 -0.623048,1.69727 z" /><path
     style="fill:#aa8800"
     id="path733"
     d="m 58.668779,145.09789 v -7.77737 h 1.410811 v 1.46094 q 1.074221,-1.63281 2.886074,-1.63281 0.637371,0 1.446618,0.17903 v 2.20574 h -1.059898 v -1.08138 q -0.315105,-0.0716 -0.572918,-0.0716 -0.809247,0 -1.425134,0.37956 -0.608725,0.3724 -1.274742,1.27474 v 5.06317 z" /><path
     style="fill:#aa8800"
     id="path735"
     d="m 75.505408,144.78278 v -1.27474 q 1.639978,0.70898 2.835944,0.70898 0.859377,0 1.417972,-0.34375 0.565756,-0.35091 0.565756,-0.88086 0,-0.68034 -1.339195,-1.11003 l -1.511072,-0.49414 q -1.768884,-0.57292 -1.768884,-2.01953 0,-1.0599 0.794924,-1.63998 0.802085,-0.58008 2.263026,-0.58008 1.095706,0 2.542323,0.33659 v 1.14583 q -1.396487,-0.42252 -2.549485,-0.42252 -0.773439,0 -1.238935,0.27929 -0.458334,0.2793 -0.458334,0.75196 0,0.58008 1.052737,0.94531 l 1.783207,0.62305 q 0.97396,0.34375 1.396487,0.82357 0.429689,0.47266 0.429689,1.23177 0,1.10287 -0.909507,1.76173 -0.909508,0.65169 -2.442063,0.65169 -1.339196,0 -2.86459,-0.49414 z" /><path
     style="fill:#aa8800"
     id="path737"
     d="m 87.085511,145.09789 v -6.71747 h -2.828782 v -1.0599 h 4.239593 v 7.77737 z m -0.179037,-9.53909 v -1.76888 h 1.768885 v 1.76888 z" /><path
     style="fill:#aa8800"
     id="path739"
     d="m 92.84334,145.09789 v -1.0599 l 5.091808,-5.65757 h -4.912772 v -1.0599 h 6.581396 v 1.0599 l -5.09897,5.65757 h 5.227876 v 1.0599 z" /><path
     style="fill:#aa8800"
     id="path741"
     d="m 108.58426,144.78994 q -1.46811,0.48698 -2.69272,0.48698 -2.00521,0 -3.08659,-1.03125 -1.07423,-1.03125 -1.07423,-2.95053 0,-1.81185 1.03126,-2.97917 1.03841,-1.16732 2.63542,-1.16732 1.61133,0 2.37045,0.9668 0.76628,0.9668 0.76628,3.00782 v 0.45117 h -5.2995 q 0.15756,2.64258 2.85027,2.64258 1.13868,0 2.49936,-0.54427 z m -5.30666,-4.2754 h 3.75262 v -0.20052 q 0,-2.10547 -1.75457,-2.10547 -0.84505,0 -1.375,0.60872 -0.52279,0.60873 -0.62305,1.69727 z" /></g><text
   id="text679"
   y="187.55234"
   x="25.041048"
   style="font-size:40px;line-height:1.25;font-family:'Lucida Console';-inkscape-font-specification:'Lucida Console'"
   xml:space="preserve"><tspan
     y="187.55234"
     x="25.041048"
     id="tspan677"
     sodipodi:role="line" /></text><g
   transform="translate(0,12)"
   style="font-size:14.6667px;line-height:1.25;font-family:'Lucida Console';-inkscape-font-specification:'Lucida Console';fill:#aa8800"
   id="text645-98"
   aria-label="block size"><path
     style="fill:#aa8800"
     id="path704"
     d="m 13.444069,185.02608 v -11.39391 h 1.41081 v 4.99155 q 1.024091,-1.63282 2.542324,-1.63282 1.324872,0 2.083989,1.02409 0.766278,1.01693 0.766278,2.77866 0,1.93359 -0.902346,3.12956 -0.902346,1.19597 -2.363287,1.19597 -1.253258,0 -2.126958,-1.0599 l -0.350912,0.9668 z m 1.41081,-2.0267 q 0.981122,1.0599 1.933598,1.0599 0.930992,0 1.439457,-0.81641 0.515626,-0.82357 0.515626,-2.29883 0,-2.75001 -1.639978,-2.75001 -1.195966,0 -2.248703,1.48959 z" /><path
     style="fill:#aa8800"
     id="path706"
     d="m 25.296309,184.94014 v -10.24807 h -3.000658 v -1.0599 h 4.41863 v 11.30797 z" /><path
     style="fill:#aa8800"
     id="path708"
     d="m 34.326928,185.11918 q -1.711592,0 -2.692714,-1.08139 -0.973961,-1.08854 -0.973961,-2.98633 0,-1.89063 0.981122,-2.97201 0.981122,-1.08855 2.685553,-1.08855 1.711593,0 2.685553,1.08855 0.981123,1.08138 0.981123,2.97201 0,1.89779 -0.981123,2.98633 -0.97396,1.08139 -2.685553,1.08139 z m 0,-1.0599 q 1.01693,0 1.589848,-0.79493 0.572918,-0.79492 0.572918,-2.21289 0,-1.41081 -0.572918,-2.20574 -0.572918,-0.79492 -1.589848,-0.79492 -1.016929,0 -1.589847,0.79492 -0.572918,0.79493 -0.572918,2.20574 0,1.41797 0.572918,2.21289 0.572918,0.79493 1.589847,0.79493 z" /><path
     style="fill:#aa8800"
     id="path710"
     d="m 46.658989,184.68949 q -1.253258,0.42969 -2.499355,0.42969 -2.033859,0 -3.136726,-1.0599 -1.095706,-1.0599 -1.095706,-3.00782 0,-1.91211 1.081383,-2.98634 1.088544,-1.07422 3.022142,-1.07422 1.231774,0 2.485032,0.3724 v 1.18164 q -1.382164,-0.49414 -2.356125,-0.49414 -1.274743,0 -2.005213,0.80209 -0.723309,0.80208 -0.723309,2.19857 0,1.41081 0.773439,2.21289 0.780601,0.79493 2.148443,0.79493 1.024091,0 2.305995,-0.47982 z" /><path
     style="fill:#aa8800"
     id="path712"
     d="m 49.136858,184.94014 v -11.30797 h 1.41081 v 7.24025 l 3.265633,-3.70964 h 1.525394 l -3.072273,3.50196 3.852874,4.2754 h -1.904953 l -3.666675,-4.06772 v 4.06772 z" /><path
     style="fill:#aa8800"
     id="path714"
     d="m 66.653826,184.62503 v -1.27474 q 1.639978,0.70899 2.835944,0.70899 0.859377,0 1.417972,-0.34375 0.565757,-0.35091 0.565757,-0.88086 0,-0.68034 -1.339196,-1.11003 l -1.511071,-0.49414 q -1.768884,-0.57292 -1.768884,-2.01954 0,-1.0599 0.794923,-1.63998 0.802085,-0.58008 2.263026,-0.58008 1.095706,0 2.542324,0.33659 v 1.14584 q -1.396488,-0.42253 -2.549485,-0.42253 -0.773439,0 -1.238935,0.2793 -0.458335,0.2793 -0.458335,0.75195 0,0.58008 1.052737,0.94532 l 1.783207,0.62305 q 0.973961,0.34375 1.396488,0.82357 0.429688,0.47265 0.429688,1.23177 0,1.10287 -0.909507,1.76172 -0.909507,0.6517 -2.442063,0.6517 -1.339196,0 -2.86459,-0.49415 z" /><path
     style="fill:#aa8800"
     id="path716"
     d="m 78.23393,184.94014 v -6.71746 h -2.828783 v -1.0599 h 4.239593 v 7.77736 z m -0.179037,-9.53908 v -1.76889 h 1.768884 v 1.76889 z" /><path
     style="fill:#aa8800"
     id="path718"
     d="m 83.991754,184.94014 v -1.0599 l 5.091809,-5.65756 h -4.912772 v -1.0599 h 6.581395 v 1.0599 l -5.09897,5.65756 h 5.227877 v 1.0599 z" /><path
     style="fill:#aa8800"
     id="path720"
     d="m 99.732678,184.6322 q -1.468102,0.48698 -2.692714,0.48698 -2.005213,0 -3.086596,-1.03126 -1.074221,-1.03125 -1.074221,-2.95052 0,-1.81186 1.031252,-2.97918 1.038414,-1.16732 2.635423,-1.16732 1.611332,0 2.370448,0.9668 0.766278,0.9668 0.766278,3.00782 v 0.45117 h -5.299491 q 0.157552,2.64259 2.850267,2.64259 1.138674,0 2.499354,-0.54427 z m -5.306652,-4.2754 h 3.752612 v -0.20053 q 0,-2.10547 -1.754561,-2.10547 -0.845054,0 -1.375003,0.60873 -0.522788,0.60872 -0.623048,1.69727 z" /></g><g
   style="font-size:21.3333px;line-height:1.25;font-family:'Lucida Console';-inkscape-font-specification:'Lucida Console';fill:#aa8800"
   id="text781"
   aria-label="out"><path
     id="path814"
     d="m 38.111666,397.36759 q -2.489579,0 -3.91666,-1.57291 -1.416665,-1.58333 -1.416665,-4.34374 0,-2.75 1.427082,-4.32291 1.427081,-1.58333 3.906243,-1.58333 2.48958,0 3.906244,1.58333 1.427081,1.57291 1.427081,4.32291 0,2.76041 -1.427081,4.34374 -1.416664,1.57291 -3.906244,1.57291 z m 0,-1.54166 q 1.479165,0 2.312497,-1.15625 0.833332,-1.15625 0.833332,-3.21874 0,-2.05208 -0.833332,-3.20833 -0.833332,-1.15625 -2.312497,-1.15625 -1.479164,0 -2.312496,1.15625 -0.833332,1.15625 -0.833332,3.20833 0,2.06249 0.833332,3.21874 0.833332,1.15625 2.312496,1.15625 z" /><path
     id="path816"
     d="m 55.517889,385.7947 v 11.31248 h -2.05208 v -2.125 q -1.416664,2.38541 -3.864577,2.38541 -3.208328,0 -3.208328,-3.83332 v -7.73957 h 2.05208 v 7.17707 q 0,1.33333 0.406249,1.89583 0.406249,0.55208 1.385415,0.55208 1.541664,0 3.229161,-2.22916 v -7.39582 z" /><path
     id="path818"
     d="m 68.913702,397.09676 q -1.541665,0.27083 -2.979162,0.27083 -2.510413,0 -3.416662,-0.89583 -0.906248,-0.90625 -0.906248,-3.41666 v -5.45832 h -2.822912 v -1.54167 h 2.822912 v -2.43749 h 2.062497 v 2.43749 h 5.010408 v 1.54167 h -5.010408 v 5.79165 q 0,0.96875 0.114583,1.33333 0.125,0.36459 0.520832,0.63542 0.708333,0.46875 2.062497,0.46875 1.281248,0 2.541663,-0.29167 z" /></g><g
   style="font-size:21.3333px;line-height:1.25;font-family:'Lucida Console';-inkscape-font-specification:'Lucida Console';fill:#aa8800"
   id="text781-0"
   aria-label="in"><path
     id="path809"
     d="m 41.947743,307.10715 v -9.77082 h -4.114577 v -1.54166 h 6.166657 v 11.31248 z m -0.260416,-13.87498 v -2.57291 h 2.572913 v 2.57291 z" /><path
     id="path811"
     d="m 50.801896,307.10715 v -11.31248 h 2.05208 v 2.12499 q 1.416665,-2.37499 3.854161,-2.37499 3.218745,0 3.218745,3.82291 v 7.73957 h -2.05208 v -7.17707 q 0,-1.32292 -0.416666,-1.875 -0.40625,-0.5625 -1.374998,-0.5625 -1.541664,0 -3.229162,2.21875 v 7.39582 z" /></g><path
   d="m 20.908547,272.89634 a 4.3438554,4.3438554 0 0 1 -4.343855,4.34385 4.3438554,4.3438554 0 0 1 -4.343856,-4.34385 4.3438554,4.3438554 0 0 1 4.343856,-4.34386 4.3438554,4.3438554 0 0 1 4.343855,4.34386 z"
   style="fill:#aa8800"
   id="path832" /><path
   d="m 43.012686,272.89634 a 4.3438554,4.3438554 0 0 1 -4.343855,4.34385 4.3438554,4.3438554 0 0 1 -4.343856,-4.34385 4.3438554,4.3438554 0 0 1 4.343856,-4.34386 4.3438554,4.3438554 0 0 1 4.343855,4.34386"
   style="fill:#aa8800"
   id="path832-0" /><path
   d="m 65.116831,272.89634 a 4.3438554,4.3438554 0 0 1 -4.343855,4.34385 4.3438554,4.3438554 0 0 1 -4.343855,-4.34385 4.3438554,4.3438554 0 0 1 4.343855,-4.34386 4.3438554,4.3438554 0 0 1 4.343855,4.34386"
   style="fill:#aa8800"
   id="path832-6" /><path
   d="m 87.220969,272.89634 a 4.3438554,4.3438554 0 0 1 -4.343856,4.34385 4.3438554,4.3438554 0 0 1 -4.343855,-4.34385 4.3438554,4.3438554 0 0 1 4.343855,-4.34386 4.3438554,4.3438554 0 0 1 4.343856,4.34386"
   style="fill:#aa8800"
   id="path832-3" /><g
   style="font-size:15.7802px;line-height:1.25;font-family:'Lucida Console';-inkscape-font-specification:'Lucida Console';fill:#aa8800;stroke-width:0.986265"
   id="text863"
   transform="scale(0.98626508,1.0139262)"
   aria-label="E NC   C"><g
     aria-label="L"
     transform="scale(1.0139262,0.98626508)"
     id="text128"
     style="font-size:16.0887px;line-height:1.25;font-family:'Lucida Console';-inkscape-font-specification:'Lucida Console';fill:#00ffff;stroke-width:0.396692"><path
       d="m 57.302881,259.194 v -10.079 h 1.547595 v 8.91634 h 5.428365 v 1.16266 z"
       style="fill:#00ffff;stroke-width:0.396692"
       id="path130" /></g><path
     id="path867"
     style="fill:#800000;stroke-width:0.986265"
     d="m 13.583862,255.62662 v -9.88574 h 6.680388 v 1.14036 h -5.162468 v 2.99732 h 4.37654 v 1.14036 h -4.37654 v 3.46733 h 5.516906 v 1.14037 z" /><path
     id="path869"
     style="stroke-width:0.986265"
     d="m 36.16281,255.62662 v -9.91656 h 1.433162 l 4.538349,7.18893 h 0.01541 v -7.15811 h 1.240534 v 9.88574 h -1.402342 l -4.56917,-7.24287 h -0.02311 v 7.24287 z" /><path
     id="path873"
     style="stroke-width:0.986265"
     d="m 110.82689,255.31841 q -1.52562,0.54707 -2.87403,0.54707 -2.35778,0 -3.79865,-1.41005 -1.44086,-1.41775 -1.44086,-3.7216 0,-2.33467 1.43316,-3.78324 1.43316,-1.44857 3.74471,-1.44857 1.30988,0 2.80468,0.4469 v 1.39463 q -1.52562,-0.70117 -2.85091,-0.70117 -1.53333,0 -2.5273,1.12496 -0.98626,1.12495 -0.98626,2.86632 0,1.75678 1.11725,2.87403 1.11725,1.11725 2.87403,1.11725 1.06331,0 2.50418,-0.55477 z" /></g><path
   id="path832-3-5"
   style="fill:#aa8800"
   d="m 109.61847,272.89634 a 4.3438555,4.3438555 0 0 1 -4.34385,4.34385 4.3438555,4.3438555 0 0 1 -4.34386,-4.34385 4.3438555,4.3438555 0 0 1 4.34386,-4.34386 4.3438555,4.3438555 0 0 1 4.34385,4.34386" /><path
   d="m 99.152278,294.49258 a 4.3438556,4.3438556 0 0 1 -4.34385,4.34385 4.3438556,4.3438556 0 0 1 -4.34386,-4.34385 4.3438556,4.3438556 0 0 1 4.34386,-4.34386 4.3438556,4.3438556 0 0 1 4.34385,4.34386"
   style="fill:#aa8800"
   id="path832-3-5-7" /><path
   id="path832-3-5-7-9"
   style="fill:#aa8800"
   d="m 99.152278,385.41386 a 4.3438557,4.3438557 0 0 1 -4.34385,4.34385 4.3438557,4.3438557 0 0 1 -4.34386,-4.34385 4.3438557,4.3438557 0 0 1 4.34386,-4.34386 4.3438557,4.3438557 0 0 1 4.34385,4.34386" /><path
   id="path832-3-5-7-2"
   style="fill:#aa8800"
   d="m 99.152283,306.64717 a 4.3438557,4.3438557 0 0 1 -4.34386,4.34385 4.3438557,4.3438557 0 0 1 -4.34386,-4.34385 4.3438557,4.3438557 0 0 1 4.34386,-4.34386 4.3438557,4.3438557 0 0 1 4.34386,4.34386" /><path
   d="m 99.152283,397.56845 a 4.3438558,4.3438558 0 0 1 -4.34386,4.34385 4.3438558,4.3438558 0 0 1 -4.34386,-4.34385 4.3438558,4.3438558 0 0 1 4.34386,-4.34386 4.3438558,4.3438558 0 0 1 4.34386,4.34386"
   style="fill:#aa8800"
   id="path832-3-5-7-9-0" /><g
   style="font-size:40px;line-height:1.25;font-family:'Lucida Console';-inkscape-font-specification:'Lucida Console'"
   id="text770"
   aria-label="o"><path
     id="path813"
     style="font-size:16px;fill:#aa8800"
     d="m 83.009712,298.64371 q -1.867187,0 -2.9375,-1.17969 -1.0625,-1.1875 -1.0625,-3.25781 0,-2.0625 1.070313,-3.24219 1.070312,-1.1875 2.929687,-1.1875 1.867188,0 2.929688,1.1875 1.070312,1.17969 1.070312,3.24219 0,2.07031 -1.070312,3.25781 -1.0625,1.17969 -2.929688,1.17969 z m 0,-1.15625 q 1.109375,0 1.734375,-0.86719 0.625,-0.86719 0.625,-2.41406 0,-1.53907 -0.625,-2.40625 -0.625,-0.86719 -1.734375,-0.86719 -1.109375,0 -1.734375,0.86719 -0.625,0.86718 -0.625,2.40625 0,1.54687 0.625,2.41406 0.625,0.86719 1.734375,0.86719 z" /></g><g
   style="font-size:16px;line-height:1.25;font-family:'Lucida Console';-inkscape-font-specification:'Lucida Console';fill:#aa8800"
   id="text778"
   aria-label="u"><path
     id="path810"
     style="font-size:16px;fill:#aa8800"
     d="m 86.408142,302.22903 v 8.48438 H 84.86908 v -1.59375 q -1.0625,1.78906 -2.898438,1.78906 -2.40625,0 -2.40625,-2.875 v -5.80469 h 1.539063 v 5.38282 q 0,1 0.304687,1.42187 0.304688,0.41406 1.039063,0.41406 1.15625,0 2.421875,-1.67187 v -5.54688 z" /></g><g
   style="font-size:40px;line-height:1.25;font-family:'Lucida Console';-inkscape-font-specification:'Lucida Console'"
   id="text770-5"
   aria-label="o"><path
     id="path807"
     style="font-size:16px;fill:#aa8800"
     d="m 83.81086,389.75909 q -1.867188,0 -2.9375,-1.17968 -1.0625,-1.1875 -1.0625,-3.25782 0,-2.0625 1.070312,-3.24218 1.070313,-1.1875 2.929688,-1.1875 1.867187,0 2.929687,1.1875 1.070313,1.17968 1.070313,3.24218 0,2.07032 -1.070313,3.25782 -1.0625,1.17968 -2.929687,1.17968 z m 0,-1.15625 q 1.109375,0 1.734375,-0.86718 0.625,-0.86719 0.625,-2.41407 0,-1.53906 -0.625,-2.40625 -0.625,-0.86718 -1.734375,-0.86718 -1.109375,0 -1.734375,0.86718 -0.625,0.86719 -0.625,2.40625 0,1.54688 0.625,2.41407 0.625,0.86718 1.734375,0.86718 z" /></g><g
   style="font-size:16px;line-height:1.25;font-family:'Lucida Console';-inkscape-font-specification:'Lucida Console';fill:#aa8800"
   id="text778-8"
   aria-label="u"><path
     id="path804"
     style="font-size:16px;fill:#aa8800"
     d="m 87.209297,393.34442 v 8.48438 h -1.539062 v -1.59375 q -1.0625,1.78906 -2.898438,1.78906 -2.40625,0 -2.40625,-2.875 v -5.80469 h 1.539063 v 5.38281 q 0,1 0.304687,1.42188 0.304688,0.41406 1.039063,0.41406 1.15625,0 2.421875,-1.67187 v -5.54688 z" /></g></svg>
